<svg xmlns="http://www.w3.org/2000/svg" width="125.001" height="14" viewBox="0 0 125.001 14">
  <g id="logo" transform="translate(-12 -13)">
    <g id="logo-2" data-name="logo" transform="translate(-41.54 -559.198)">
      <g id="グループ_11" data-name="グループ 11">
        <g id="グループ_10" data-name="グループ 10">
          <g id="グループ_9" data-name="グループ 9">
            <path id="パス_47" data-name="パス 47" d="M62.621,582.452H58.161l-1.087,3.535H53.54l4.677-13.581h4.507L67.5,585.987H63.816Zm-3.943-2.312h3.371q-1.312-3.973-1.7-5.458h-.042l-.7,2.576Z" fill="#191a1a"/>
            <path id="パス_48" data-name="パス 48" d="M71.463,585.987H69.12V575.815h3.019l2.681,4.157a25.768,25.768,0,0,1,1.607,3.088h.03a36.516,36.516,0,0,1-.195-4.2v-3.049H78.6v10.172H75.917q-2.824-4.485-3.369-5.408c-.365-.624-.747-1.344-1.131-2.165H71.35q.115,1.924.113,4.422Z" fill="#191a1a"/>
            <path id="パス_49" data-name="パス 49" d="M80.818,585.987V575.815h2.543v4.47c.335-.457.638-.857.909-1.215l2.5-3.255h3.159l-3.761,4.3,3.985,5.876h-2.97l-2.846-4.418-.981,1.093v3.325Z" fill="#191a1a"/>
            <path id="パス_50" data-name="パス 50" d="M91.218,575.815h2.541v3.909H98.1v-3.909h2.543v10.172H98.1v-4.246H93.759v4.246H91.218Z" fill="#191a1a"/>
            <path id="パス_51" data-name="パス 51" d="M107.094,585.334l.7-2.57a9.061,9.061,0,0,0,3.869.891,3.351,3.351,0,0,0,1.765-.389,1.205,1.205,0,0,0,.636-1.072,1.22,1.22,0,0,0-.579-1.025,7.4,7.4,0,0,0-1.981-.841q-4.24-1.289-4.239-4.049a3.511,3.511,0,0,1,1.555-2.929,6.811,6.811,0,0,1,4.148-1.151,10.142,10.142,0,0,1,3.95.706l-.766,2.466a8.228,8.228,0,0,0-3.233-.656,3.071,3.071,0,0,0-1.614.36,1.082,1.082,0,0,0-.582.945,1.105,1.105,0,0,0,.49.909,9.443,9.443,0,0,0,2.356.982,7.224,7.224,0,0,1,2.992,1.635,3.341,3.341,0,0,1,.959,2.445,3.626,3.626,0,0,1-1.6,3.045,7.55,7.55,0,0,1-4.48,1.163A10.309,10.309,0,0,1,107.094,585.334Z" fill="#191a1a"/>
            <path id="パス_52" data-name="パス 52" d="M124.767,585.987h-2.543v-4.2l-3.628-5.974h2.943q2.015,4.2,2.087,4.377c.242-.622.914-2.083,2-4.377h2.935l-3.8,5.888Z" fill="#191a1a"/>
            <path id="パス_53" data-name="パス 53" d="M128.858,585.49l.527-1.909a6.9,6.9,0,0,0,2.9.649,2.515,2.515,0,0,0,1.321-.289.9.9,0,0,0,.481-.8.91.91,0,0,0-.431-.762,5.324,5.324,0,0,0-1.484-.629Q129,580.787,129,578.72a2.618,2.618,0,0,1,1.168-2.194,5.05,5.05,0,0,1,3.1-.871,7.694,7.694,0,0,1,2.957.527l-.574,1.834a6.322,6.322,0,0,0-2.415-.468,2.327,2.327,0,0,0-1.205.267.807.807,0,0,0-.067,1.389,7.127,7.127,0,0,0,1.757.733,5.214,5.214,0,0,1,2.228,1.194,2.522,2.522,0,0,1,.734,1.839,2.737,2.737,0,0,1-1.205,2.3,5.6,5.6,0,0,1-3.359.88A7.658,7.658,0,0,1,128.858,585.49Z" fill="#191a1a"/>
            <path id="パス_54" data-name="パス 54" d="M140.7,585.987v-8.231h-3.11v-1.941h8.828v1.941H143.25v8.231Z" fill="#191a1a"/>
            <path id="パス_55" data-name="パス 55" d="M154.562,579.828v1.914h-4.256v2.334h4.739v1.911h-7.282V575.815h7.058v1.911h-4.515v2.1Z" fill="#191a1a"/>
            <path id="パス_56" data-name="パス 56" d="M166.647,585.987c-.168-4.029-.254-6.77-.254-8.2h-.049q-.4,1.622-2.708,8.05h-1.994c-.919-2.956-1.464-4.768-1.649-5.435s-.392-1.545-.626-2.615h-.032c-.069,2.029-.131,3.5-.175,4.388l-.212,3.816h-2.363l.69-10.172h3.453c.863,2.6,1.38,4.207,1.545,4.825s.347,1.353.525,2.2h.062q.61-2.362,1.045-3.547l1.272-3.479h3.408l.567,10.172Z" fill="#191a1a"/>
            <path id="パス_57" data-name="パス 57" d="M170.713,585.49l.527-1.909a6.916,6.916,0,0,0,2.9.649,2.556,2.556,0,0,0,1.328-.289.894.894,0,0,0,.471-.8.907.907,0,0,0-.429-.762,5.245,5.245,0,0,0-1.479-.629q-3.179-.964-3.179-3.031a2.624,2.624,0,0,1,1.168-2.194,5.063,5.063,0,0,1,3.105-.871,7.681,7.681,0,0,1,2.955.527l-.574,1.834a6.28,6.28,0,0,0-2.41-.468,2.312,2.312,0,0,0-1.208.267.8.8,0,0,0-.067,1.389,7.082,7.082,0,0,0,1.757.733,5.2,5.2,0,0,1,2.225,1.194,2.5,2.5,0,0,1,.734,1.839,2.728,2.728,0,0,1-1.2,2.3,5.621,5.621,0,0,1-3.364.88A7.654,7.654,0,0,1,170.713,585.49Z" fill="#191a1a"/>
          </g>
          <path id="パス_58" data-name="パス 58" d="M62.621,582.452H58.161l-1.087,3.535H53.54l4.677-13.581h4.507L67.5,585.987H63.816Zm-3.943-2.312h3.371q-1.312-3.973-1.7-5.458h-.042l-.7,2.576Z" fill="#191a1a"/>
          <path id="パス_59" data-name="パス 59" d="M71.463,585.987H69.12V575.815h3.019l2.681,4.157a25.768,25.768,0,0,1,1.607,3.088h.03a36.516,36.516,0,0,1-.195-4.2v-3.049H78.6v10.172H75.917q-2.824-4.485-3.369-5.408c-.365-.624-.747-1.344-1.131-2.165H71.35q.115,1.924.113,4.422Z" fill="#191a1a"/>
          <path id="パス_60" data-name="パス 60" d="M80.818,585.987V575.815h2.543v4.47c.335-.457.638-.857.909-1.215l2.5-3.255h3.159l-3.761,4.3,3.985,5.876h-2.97l-2.846-4.418-.981,1.093v3.325Z" fill="#191a1a"/>
          <path id="パス_61" data-name="パス 61" d="M91.218,575.815h2.541v3.909H98.1v-3.909h2.543v10.172H98.1v-4.246H93.759v4.246H91.218Z" fill="#191a1a"/>
          <path id="パス_62" data-name="パス 62" d="M107.094,585.334l.7-2.57a9.061,9.061,0,0,0,3.869.891,3.351,3.351,0,0,0,1.765-.389,1.205,1.205,0,0,0,.636-1.072,1.22,1.22,0,0,0-.579-1.025,7.4,7.4,0,0,0-1.981-.841q-4.24-1.289-4.239-4.049a3.511,3.511,0,0,1,1.555-2.929,6.811,6.811,0,0,1,4.148-1.151,10.142,10.142,0,0,1,3.95.706l-.766,2.466a8.228,8.228,0,0,0-3.233-.656,3.071,3.071,0,0,0-1.614.36,1.082,1.082,0,0,0-.582.945,1.105,1.105,0,0,0,.49.909,9.443,9.443,0,0,0,2.356.982,7.224,7.224,0,0,1,2.992,1.635,3.341,3.341,0,0,1,.959,2.445,3.626,3.626,0,0,1-1.6,3.045,7.55,7.55,0,0,1-4.48,1.163A10.309,10.309,0,0,1,107.094,585.334Z" fill="#191a1a"/>
          <path id="パス_63" data-name="パス 63" d="M124.767,585.987h-2.543v-4.2l-3.628-5.974h2.943q2.015,4.2,2.087,4.377c.242-.622.914-2.083,2-4.377h2.935l-3.8,5.888Z" fill="#191a1a"/>
          <path id="パス_64" data-name="パス 64" d="M128.858,585.49l.527-1.909a6.9,6.9,0,0,0,2.9.649,2.515,2.515,0,0,0,1.321-.289.9.9,0,0,0,.481-.8.91.91,0,0,0-.431-.762,5.324,5.324,0,0,0-1.484-.629Q129,580.787,129,578.72a2.618,2.618,0,0,1,1.168-2.194,5.05,5.05,0,0,1,3.1-.871,7.694,7.694,0,0,1,2.957.527l-.574,1.834a6.322,6.322,0,0,0-2.415-.468,2.327,2.327,0,0,0-1.205.267.807.807,0,0,0-.067,1.389,7.127,7.127,0,0,0,1.757.733,5.214,5.214,0,0,1,2.228,1.194,2.522,2.522,0,0,1,.734,1.839,2.737,2.737,0,0,1-1.205,2.3,5.6,5.6,0,0,1-3.359.88A7.658,7.658,0,0,1,128.858,585.49Z" fill="#191a1a"/>
          <path id="パス_65" data-name="パス 65" d="M140.7,585.987v-8.231h-3.11v-1.941h8.828v1.941H143.25v8.231Z" fill="#191a1a"/>
          <path id="パス_66" data-name="パス 66" d="M154.562,579.828v1.914h-4.256v2.334h4.739v1.911h-7.282V575.815h7.058v1.911h-4.515v2.1Z" fill="#191a1a"/>
          <path id="パス_67" data-name="パス 67" d="M166.647,585.987c-.168-4.029-.254-6.77-.254-8.2h-.049q-.4,1.622-2.708,8.05h-1.994c-.919-2.956-1.464-4.768-1.649-5.435s-.392-1.545-.626-2.615h-.032c-.069,2.029-.131,3.5-.175,4.388l-.212,3.816h-2.363l.69-10.172h3.453c.863,2.6,1.38,4.207,1.545,4.825s.347,1.353.525,2.2h.062q.61-2.362,1.045-3.547l1.272-3.479h3.408l.567,10.172Z" fill="#191a1a"/>
          <path id="パス_68" data-name="パス 68" d="M170.713,585.49l.527-1.909a6.916,6.916,0,0,0,2.9.649,2.556,2.556,0,0,0,1.328-.289.894.894,0,0,0,.471-.8.907.907,0,0,0-.429-.762,5.245,5.245,0,0,0-1.479-.629q-3.179-.964-3.179-3.031a2.624,2.624,0,0,1,1.168-2.194,5.063,5.063,0,0,1,3.105-.871,7.681,7.681,0,0,1,2.955.527l-.574,1.834a6.28,6.28,0,0,0-2.41-.468,2.312,2.312,0,0,0-1.208.267.8.8,0,0,0-.067,1.389,7.082,7.082,0,0,0,1.757.733,5.2,5.2,0,0,1,2.225,1.194,2.5,2.5,0,0,1,.734,1.839,2.728,2.728,0,0,1-1.2,2.3,5.621,5.621,0,0,1-3.364.88A7.654,7.654,0,0,1,170.713,585.49Z" fill="#191a1a"/>
        </g>
      </g>
    </g>
    <path id="Color_Overlay" data-name="Color Overlay" d="M65.554,26.136l.7-2.57a9.068,9.068,0,0,0,3.869.891,3.351,3.351,0,0,0,1.765-.389A1.206,1.206,0,0,0,72.523,23a1.22,1.22,0,0,0-.579-1.024,7.41,7.41,0,0,0-1.982-.841q-4.239-1.289-4.239-4.049a3.512,3.512,0,0,1,1.555-2.93A6.815,6.815,0,0,1,71.427,13a10.142,10.142,0,0,1,3.95.706l-.766,2.466a8.23,8.23,0,0,0-3.234-.656,3.069,3.069,0,0,0-1.615.36,1.082,1.082,0,0,0-.581.945,1.106,1.106,0,0,0,.491.909,9.406,9.406,0,0,0,2.356.982,7.227,7.227,0,0,1,2.992,1.635,3.34,3.34,0,0,1,.959,2.445,3.626,3.626,0,0,1-1.6,3.045A7.549,7.549,0,0,1,69.9,27,10.3,10.3,0,0,1,65.554,26.136Zm63.62.156.527-1.909a6.919,6.919,0,0,0,2.9.649,2.551,2.551,0,0,0,1.328-.289.893.893,0,0,0,.471-.8.907.907,0,0,0-.428-.762,5.238,5.238,0,0,0-1.479-.628q-3.179-.964-3.179-3.031a2.623,2.623,0,0,1,1.168-2.194,5.063,5.063,0,0,1,3.106-.871,7.68,7.68,0,0,1,2.954.527l-.573,1.834a6.283,6.283,0,0,0-2.411-.468,2.317,2.317,0,0,0-1.208.267.8.8,0,0,0-.066,1.389,7.077,7.077,0,0,0,1.757.733,5.2,5.2,0,0,1,2.225,1.194A2.5,2.5,0,0,1,137,23.772a2.726,2.726,0,0,1-1.2,2.3,5.618,5.618,0,0,1-3.363.879A7.642,7.642,0,0,1,129.174,26.292Zm-41.857,0,.527-1.909a6.909,6.909,0,0,0,2.9.649,2.516,2.516,0,0,0,1.321-.289.9.9,0,0,0,.481-.8.912.912,0,0,0-.431-.762,5.342,5.342,0,0,0-1.483-.628q-3.177-.964-3.174-3.031a2.618,2.618,0,0,1,1.167-2.194,5.053,5.053,0,0,1,3.1-.871,7.688,7.688,0,0,1,2.956.527l-.574,1.834A6.313,6.313,0,0,0,91.7,18.35a2.333,2.333,0,0,0-1.206.267.807.807,0,0,0-.066,1.389,7.115,7.115,0,0,0,1.756.733,5.219,5.219,0,0,1,2.229,1.194,2.526,2.526,0,0,1,.733,1.839,2.738,2.738,0,0,1-1.205,2.3,5.6,5.6,0,0,1-3.358.879A7.657,7.657,0,0,1,87.317,26.292Zm37.789.5c-.166-4.028-.254-6.77-.254-8.2H124.8q-.4,1.623-2.709,8.05H120.1c-.919-2.956-1.463-4.768-1.648-5.435s-.392-1.545-.626-2.615h-.032c-.068,2.029-.131,3.5-.175,4.388l-.212,3.816h-2.363l.691-10.172h3.451c.863,2.6,1.381,4.208,1.545,4.825s.347,1.353.526,2.2h.061q.61-2.361,1.045-3.547l1.272-3.479h3.409l.566,10.172Zm-18.884,0V16.618h7.059v1.912h-4.516v2.1h4.257v1.914h-4.257v2.334H113.5v1.912Zm-7.058,0V18.558H96.053v-1.94h8.828v1.94h-3.173v8.231Zm-18.481,0v-4.2l-3.628-5.973H80q2.016,4.2,2.088,4.377c.241-.622.914-2.083,2-4.377h2.935l-3.794,5.888v4.284Zm-24.122,0V22.544H52.219v4.245H49.678V16.618h2.541v3.909h4.342V16.618H59.1V26.789Zm-10.912,0L42.8,22.372l-.981,1.093v3.325H39.278V16.618h2.543v4.469c.336-.457.638-.857.91-1.215l2.5-3.254h3.159l-3.76,4.3,3.984,5.876Zm-11.273,0q-2.824-4.485-3.369-5.408c-.365-.625-.747-1.344-1.131-2.164H29.81q.115,1.924.113,4.422v3.151H27.58V16.618H30.6l2.681,4.157a25.869,25.869,0,0,1,1.607,3.088h.03a36.374,36.374,0,0,1-.2-4.2V16.618h2.342V26.789Zm-12.1,0-1.2-3.535H16.62l-1.087,3.535H12l4.677-13.581h4.507l4.779,13.581ZM18.064,18.06l-.926,2.882h3.371q-1.312-3.973-1.7-5.458H18.77Z" fill="#666"/>
  </g>
</svg>
